<svg width="667" height="900" viewBox="0 0 667 900" fill="none" xmlns="http://www.w3.org/2000/svg">
<path d="M333.37 0C321.153 0 308.944 5.92188 301.794 17.8385L287.862 41.0807C281.862 51.0807 271.947 57.8057 260.714 60.8724C260.58 60.9057 260.521 60.9693 260.388 61.0026C249.021 64.1359 236.964 63.2203 226.664 57.487L202.966 44.3359C178.666 30.8359 148.745 48.1115 148.279 75.9115L147.758 103.32C147.558 114.92 142.416 125.719 134.216 133.919C134.116 133.986 134.022 134.08 133.956 134.18C125.756 142.413 114.957 147.521 103.357 147.721L75.8828 148.177C48.0828 148.644 30.8073 178.596 44.3073 202.93L57.5234 226.693C63.1901 236.926 64.1391 248.89 61.0391 260.156C60.9391 260.356 60.9104 260.542 60.8437 260.742C57.8104 271.909 51.0823 281.729 41.1823 287.695L17.875 301.693C-5.95833 315.993 -5.95833 350.544 17.875 364.844L41.1823 378.841C51.1156 384.808 57.8104 394.628 60.8437 405.794C60.9104 405.994 60.9073 406.212 60.974 406.445C64.074 417.712 63.1901 429.709 57.5234 439.909L44.3073 463.672C30.8073 487.972 48.0828 517.893 75.8828 518.359L103.292 518.815C114.925 519.015 125.691 524.222 133.891 532.422L134.151 532.682C142.384 540.882 147.558 551.681 147.758 563.281L148.214 590.69C148.68 618.49 178.601 635.766 202.901 622.266L226.664 609.049C236.897 603.383 248.861 602.499 260.128 605.599C260.328 605.666 260.579 605.662 260.779 605.729C271.945 608.762 281.765 615.457 287.732 625.391L301.729 648.698C316.029 672.531 350.58 672.531 364.88 648.698L378.878 625.391C384.844 615.457 394.664 608.762 405.831 605.729C406.031 605.662 406.217 605.666 406.417 605.599C417.683 602.499 429.68 603.383 439.88 609.049L463.643 622.266C487.943 635.766 517.929 618.49 518.396 590.69L518.852 563.281C519.052 551.648 524.193 540.882 532.393 532.682L532.654 532.422C540.854 524.189 551.653 519.015 563.253 518.815L590.727 518.359C618.526 517.893 635.802 487.972 622.302 463.672L609.086 439.909C603.419 429.676 602.47 417.712 605.57 406.445C605.637 406.245 605.699 406.028 605.766 405.794C608.799 394.628 615.494 384.808 625.427 378.841L648.734 364.844C672.634 350.51 672.633 315.993 648.799 301.693L625.492 287.695C615.559 281.729 608.864 271.909 605.831 260.742C605.764 260.542 605.702 260.39 605.635 260.156C602.535 248.89 603.484 236.893 609.151 226.693L622.367 202.93C635.867 178.63 618.592 148.644 590.792 148.177L563.318 147.721C551.684 147.521 540.919 142.38 532.719 134.18L532.458 133.919C524.225 125.719 519.117 114.92 518.917 103.32L518.461 75.8464C517.994 48.0464 488.008 30.7708 463.708 44.2708L439.945 57.487C429.712 63.1536 417.748 64.1026 406.482 61.0026C406.282 60.9359 406.129 60.874 405.896 60.8073C394.729 57.774 384.909 51.0792 378.943 41.1458L364.945 17.8385C357.795 5.92188 345.586 0 333.37 0ZM91.5729 633.789L18.0052 810.026L147.237 798.698L233.305 899.935L304.659 729.036C279.826 721.936 258.334 706.008 244.568 683.008L241.117 677.279L235.323 680.534C219.923 689.067 202.594 693.555 185.128 693.555C143.994 693.555 108.206 668.956 91.5729 633.789ZM575.036 633.789C558.403 668.956 522.615 693.62 481.482 693.62C464.048 693.62 446.686 689.101 431.286 680.534L425.492 677.279L422.042 683.008C408.242 705.974 386.719 721.97 361.885 729.036L433.305 899.935L519.372 798.763L648.604 810.026L575.036 633.789Z" fill="#CBA738" fill-opacity="0.08"/>
</svg>
